<svg width="242" height="60" viewBox="0 0 242 60" fill="none" xmlns="http://www.w3.org/2000/svg">
<circle cx="30" cy="30" r="30" fill="#E12127"/>
<path d="M47.5781 26.1345V17.4402L38.9713 20.7189C38.8571 17.9764 37.9734 15.4083 36.4531 13.432C34.7507 11.2189 32.4589 10 30 10C27.5411 10 25.2493 11.2189 23.5469 13.4321C22.0266 15.4084 21.1429 17.9765 21.0287 20.719L12.4219 17.4402V26.1345C10.9895 26.8322 10 28.3026 10 30C10 31.6974 10.9895 33.1678 12.4219 33.8655V43.3822L29.5792 50H30.4207L47.5781 43.3822V33.8655C49.0105 33.1678 50 31.6974 50 30C50 28.3026 49.0105 26.8322 47.5781 26.1345ZM12.3438 30C12.3438 28.923 13.2199 28.0469 14.2969 28.0469C15.3738 28.0469 16.25 28.923 16.25 30C16.25 31.077 15.3738 31.9531 14.2969 31.9531C13.2199 31.9531 12.3438 31.077 12.3438 30ZM28.8281 47.1982L14.7656 41.7741V34.2709C16.9152 34.0365 18.5938 32.2109 18.5938 30C18.5938 27.7891 16.9152 25.9635 14.7656 25.7291V20.841L28.8281 26.1982V47.1982ZM30 24.1366L23.3628 21.6081C23.3607 21.5147 23.3594 21.4213 23.3594 21.3281C23.3594 16.3741 26.3384 12.3438 30 12.3438C33.6616 12.3438 36.6406 16.3741 36.6406 21.3281C36.6406 21.4213 36.6393 21.5148 36.6371 21.6081L30 24.1366ZM45.2344 41.7741L31.1719 47.1982V26.1982L45.2344 20.841V25.7291C43.0848 25.9635 41.4062 27.7891 41.4062 30C41.4062 32.2109 43.0848 34.0365 45.2344 34.2709V41.7741ZM45.7031 31.9531C44.6262 31.9531 43.75 31.077 43.75 30C43.75 28.923 44.6262 28.0469 45.7031 28.0469C46.7801 28.0469 47.6562 28.923 47.6562 30C47.6562 31.077 46.7801 31.9531 45.7031 31.9531Z" fill="white"/>
<path d="M91.72 17.6V44H84.08L75.88 29.72L73.88 25.8H73.84L74 30.68V44H67.92V17.6H75.56L83.76 31.88L85.76 35.8H85.8L85.64 30.92V17.6H91.72ZM106.731 44.4C103.398 44.4 100.758 43.4933 98.8113 41.68C96.8913 39.8667 95.9313 37.3067 95.9313 34C95.9313 31.8133 96.3713 29.9467 97.2513 28.4C98.1579 26.8267 99.3846 25.64 100.931 24.84C102.505 24.0133 104.331 23.6 106.411 23.6C108.518 23.6 110.305 24.0133 111.771 24.84C113.265 25.64 114.398 26.76 115.171 28.2C115.945 29.6133 116.331 31.24 116.331 33.08C116.331 33.5867 116.305 34.08 116.251 34.56C116.225 35.0133 116.198 35.4 116.171 35.72H102.531C102.718 37.1067 103.171 38.1067 103.891 38.72C104.611 39.3067 105.558 39.6 106.731 39.6C107.745 39.6 108.545 39.4 109.131 39C109.745 38.6 110.198 38.04 110.491 37.32L115.931 39.12C115.558 40.2667 114.905 41.24 113.971 42.04C113.065 42.8133 111.971 43.4 110.691 43.8C109.438 44.2 108.118 44.4 106.731 44.4ZM106.411 28.36C104.251 28.36 102.971 29.6 102.571 32.08H109.891C109.598 29.6 108.438 28.36 106.411 28.36ZM145.788 24H152.908L146.868 44H138.708L135.068 31.72L131.548 44H123.428L117.348 24H124.508L127.868 38.76L131.788 24H138.508L142.388 38.76L145.788 24ZM163.848 44.4C161.848 44.4 159.994 44.08 158.288 43.44C156.581 42.7733 155.154 41.8267 154.008 40.6L157.208 36.84C157.874 37.6933 158.754 38.4133 159.848 39C160.968 39.56 162.208 39.84 163.568 39.84C164.394 39.84 165.074 39.72 165.608 39.48C166.141 39.24 166.408 38.8667 166.408 38.36C166.408 38.0133 166.274 37.72 166.008 37.48C165.741 37.24 165.208 37.04 164.408 36.88L161.608 36.32C159.101 35.8133 157.314 35.0667 156.248 34.08C155.208 33.0667 154.688 31.7467 154.688 30.12C154.688 29.0267 155.021 27.9867 155.688 27C156.354 26.0133 157.381 25.2 158.768 24.56C160.154 23.92 161.928 23.6 164.088 23.6C168.221 23.6 171.234 24.7467 173.128 27.04L169.888 30.72C169.248 29.92 168.421 29.2933 167.408 28.84C166.394 28.3867 165.381 28.16 164.368 28.16C162.421 28.16 161.448 28.6533 161.448 29.64C161.448 29.9867 161.608 30.2933 161.928 30.56C162.274 30.8267 162.901 31.04 163.808 31.2L167.448 31.92C169.501 32.32 170.981 33.0133 171.888 34C172.794 34.96 173.248 36.1333 173.248 37.52C173.248 39.4667 172.461 41.1067 170.888 42.44C169.341 43.7467 166.994 44.4 163.848 44.4Z" fill="#000D39"/>
<path d="M189.376 17.6C192.576 17.6 195.069 18.3733 196.856 19.92C198.669 21.44 199.576 23.6 199.576 26.4C199.576 29.2 198.669 31.3733 196.856 32.92C195.069 34.44 192.576 35.2 189.376 35.2H184.136V44H177.256V17.6H189.376ZM188.296 30.04C191.203 30.04 192.656 28.8267 192.656 26.4C192.656 23.9733 191.203 22.76 188.296 22.76H184.136V30.04H188.296ZM203.495 44V24H209.495L209.775 28.32C210.255 26.8533 210.988 25.7067 211.975 24.88C212.988 24.0267 214.281 23.6 215.855 23.6C216.361 23.6 216.788 23.6533 217.135 23.76C217.508 23.84 217.801 23.9333 218.015 24.04L217.335 29.64C217.068 29.56 216.721 29.48 216.295 29.4C215.895 29.32 215.401 29.28 214.815 29.28C213.588 29.28 212.521 29.6667 211.615 30.44C210.735 31.2133 210.295 32.3733 210.295 33.92V44H203.495ZM229.968 23.6C232.074 23.6 233.914 24.0133 235.488 24.84C237.088 25.6667 238.328 26.8533 239.208 28.4C240.114 29.9467 240.568 31.8133 240.568 34C240.568 36.1867 240.114 38.0533 239.208 39.6C238.328 41.1467 237.088 42.3333 235.488 43.16C233.914 43.9867 232.074 44.4 229.968 44.4C227.888 44.4 226.048 43.9867 224.448 43.16C222.874 42.3333 221.634 41.1467 220.728 39.6C219.848 38.0533 219.408 36.1867 219.408 34C219.408 31.8133 219.848 29.9467 220.728 28.4C221.634 26.8533 222.874 25.6667 224.448 24.84C226.048 24.0133 227.888 23.6 229.968 23.6ZM229.968 28.44C228.794 28.44 227.874 28.88 227.208 29.76C226.568 30.6133 226.248 32.0267 226.248 34C226.248 35.9467 226.568 37.36 227.208 38.24C227.874 39.12 228.794 39.56 229.968 39.56C231.168 39.56 232.088 39.12 232.728 38.24C233.394 37.36 233.728 35.9467 233.728 34C233.728 32.0267 233.394 30.6133 232.728 29.76C232.088 28.88 231.168 28.44 229.968 28.44Z" fill="#E12127"/>
</svg>
